<?xml version="1.0" encoding="utf-8"?>
<!-- Generator: Adobe Illustrator 26.5.0, SVG Export Plug-In . SVG Version: 6.00 Build 0)  -->
<svg version="1.1" id="Livello_1" xmlns="http://www.w3.org/2000/svg" xmlns:xlink="http://www.w3.org/1999/xlink" x="0px" y="0px"
	 viewBox="0 0 16.9 24" style="enable-background:new 0 0 16.9 24;" xml:space="preserve">
<style type="text/css">
	.st0{fill:#FFFFFF;}
</style>
<path class="st0" d="M12.3,23l-9.9-9.9c-0.2-0.2-0.3-0.3-0.4-0.5C2,12.4,1.9,12.2,1.9,12c0-0.2,0-0.4,0.1-0.5
	c0.1-0.2,0.2-0.3,0.4-0.5l9.9-10c0.3-0.3,0.7-0.4,1.1-0.4c0.4,0,0.8,0.2,1.1,0.4c0.3,0.3,0.4,0.7,0.4,1.1c0,0.4-0.2,0.8-0.5,1.1
	L5.6,12l8.9,8.9c0.3,0.3,0.5,0.6,0.5,1c0,0.4-0.2,0.8-0.5,1c-0.3,0.3-0.7,0.5-1.1,0.5S12.6,23.3,12.3,23z"/>
</svg>
