<?xml version="1.0" encoding="utf-8"?>
<!-- Generator: Adobe Illustrator 26.5.0, SVG Export Plug-In . SVG Version: 6.00 Build 0)  -->
<svg version="1.1" id="Livello_1" xmlns="http://www.w3.org/2000/svg" xmlns:xlink="http://www.w3.org/1999/xlink" x="0px" y="0px"
	 viewBox="0 0 113.3 113.2" style="enable-background:new 0 0 113.3 113.2;" xml:space="preserve">
<style type="text/css">
	.st0{fill:#FFFFFF;}
</style>
<g id="Raggruppa_62" transform="translate(0 -141.606)">
	<g id="Raggruppa_61" transform="translate(0 0)">
		<path id="Tracciato_43" class="st0" d="M34.3,154.4c0.1,0.1,0.1,0.3,0.2,0.4c0.1,0.1,0.2,0.2,0.3,0.2c0.1,0.1,0.2,0.1,0.3,0.1
			c0.2,0,0.3-0.1,0.4-0.1c0.2-0.1,0.3-0.2,0.4-0.4c0.1-0.2,0.1-0.5,0-0.7c-0.1-0.1-0.1-0.2-0.2-0.3c-0.1-0.1-0.2-0.1-0.3-0.2
			c-0.1,0-0.3-0.1-0.4-0.1c-0.2,0-0.4,0-0.6,0c-0.3,0-0.6,0-0.9,0c-0.2,0-0.5-0.1-0.7-0.1c-0.2-0.1-0.4-0.2-0.5-0.4
			c-0.2-0.2-0.3-0.4-0.4-0.6c-0.3-0.5-0.3-1.1-0.1-1.6c0.2-0.5,0.7-0.9,1.2-1.1c0.3-0.1,0.5-0.2,0.8-0.3c0.2,0,0.5,0,0.7,0
			c0.2,0.1,0.5,0.2,0.6,0.3c0.2,0.2,0.4,0.4,0.5,0.7l0.1,0.2l-1.2,0.6c-0.1-0.2-0.3-0.5-0.5-0.6c-0.2-0.1-0.4-0.1-0.6,0
			c-0.1,0.1-0.2,0.1-0.3,0.2c-0.1,0.1-0.1,0.2-0.1,0.3c0,0.1,0,0.2,0,0.3c0,0.1,0.1,0.2,0.1,0.3c0.1,0.2,0.2,0.3,0.3,0.4
			c0.2,0.1,0.5,0.1,0.7,0.1l1.2,0c0.2,0,0.5,0,0.7,0.1c0.2,0,0.4,0.1,0.5,0.2c0.1,0.1,0.3,0.2,0.4,0.3c0.1,0.2,0.2,0.3,0.3,0.5
			c0.3,0.5,0.3,1.1,0.1,1.7c-0.3,0.5-0.8,1-1.4,1.2c-0.5,0.3-1.1,0.4-1.7,0.2c-0.5-0.2-0.9-0.6-1.1-1.1l-0.1-0.3l1.2-0.6L34.3,154.4
			z M40.3,148c-0.2-0.2-0.5-0.2-0.7-0.1c-0.1,0-0.3,0.1-0.4,0.3c-0.1,0.2-0.1,0.3-0.1,0.5c0,0.3,0.1,0.5,0.1,0.8
			c0.1,0.3,0.2,0.7,0.3,1.2c0.1,0.4,0.3,0.8,0.4,1.2c0.1,0.2,0.2,0.5,0.4,0.7c0.1,0.1,0.2,0.2,0.4,0.3c0.1,0,0.3,0,0.4,0
			c0.1,0,0.2-0.1,0.3-0.2c0.1-0.1,0.2-0.2,0.2-0.3c0-0.2,0-0.4,0-0.6c0-0.3-0.1-0.6-0.2-0.9l1.3-0.4c0.1,0.3,0.2,0.7,0.2,1
			c0,0.3,0,0.6,0,0.9c-0.1,0.3-0.2,0.6-0.4,0.8c-0.3,0.3-0.6,0.4-1,0.5c-0.4,0.1-0.8,0.2-1.2,0.1c-0.3-0.1-0.6-0.2-0.9-0.5
			c-0.3-0.3-0.5-0.6-0.7-1c-0.2-0.4-0.4-0.9-0.5-1.3c-0.1-0.5-0.3-0.9-0.4-1.4c-0.1-0.4-0.1-0.8,0-1.2c0.1-0.3,0.2-0.7,0.4-0.9
			c0.3-0.3,0.7-0.5,1.1-0.6c0.4-0.1,0.8-0.2,1.2-0.1c0.3,0.1,0.6,0.2,0.8,0.4c0.2,0.2,0.4,0.4,0.5,0.7c0.1,0.2,0.2,0.5,0.3,0.7
			l-1.3,0.4C40.7,148.6,40.5,148.2,40.3,148 M46.3,145.1c0.5-0.1,1-0.1,1.4,0.2c0.4,0.3,0.7,0.7,0.7,1.2c0.1,0.4,0.1,0.8-0.1,1.2
			c-0.1,0.3-0.4,0.6-0.7,0.7v0c0.3,0,0.6,0,0.8,0.2c0.2,0.2,0.4,0.5,0.4,0.8c0,0.1,0.1,0.3,0.1,0.4s0.1,0.3,0.1,0.5
			c0.1,0.4,0.2,0.6,0.2,0.8c0.1,0.2,0.2,0.3,0.3,0.3l0,0.1l-1.5,0.3c-0.1-0.1-0.2-0.2-0.2-0.3c0-0.1-0.1-0.2-0.1-0.4l-0.3-1.3
			c0-0.2-0.2-0.4-0.3-0.6c-0.2-0.1-0.4-0.2-0.7-0.1l-0.7,0.1l0.5,2.8l-1.4,0.3l-1.3-6.7L46.3,145.1z M46.3,148.2
			c0.3,0,0.5-0.2,0.7-0.4c0.2-0.2,0.2-0.5,0.1-0.8c0-0.5-0.4-0.8-0.9-0.8c-0.1,0-0.2,0-0.2,0l-0.6,0.1l0.4,1.9L46.3,148.2z
			 M52.3,148.9c0,0.3,0.1,0.5,0.2,0.8c0.1,0.2,0.2,0.3,0.3,0.4c0.2,0.1,0.3,0.1,0.5,0.1c0.2,0,0.3-0.1,0.5-0.2
			c0.1-0.1,0.2-0.3,0.3-0.5c0.1-0.3,0.1-0.5,0.1-0.8c0-0.3,0-0.7,0-1.2c0-0.5-0.1-0.8-0.1-1.2c0-0.3-0.1-0.5-0.2-0.8
			c-0.1-0.2-0.2-0.3-0.3-0.4c-0.2-0.1-0.3-0.1-0.5-0.1c-0.2,0-0.3,0.1-0.5,0.2c-0.1,0.1-0.2,0.3-0.3,0.5c-0.1,0.3-0.1,0.5-0.1,0.8
			c0,0.3,0,0.7,0,1.2C52.2,148.2,52.2,148.6,52.3,148.9 M50.8,146.4c0-0.4,0.1-0.8,0.2-1.1c0.1-0.3,0.4-0.6,0.7-0.8
			c0.4-0.2,0.8-0.3,1.2-0.3c0.4,0,0.9,0,1.2,0.2c0.3,0.2,0.6,0.4,0.7,0.7c0.2,0.3,0.3,0.7,0.4,1.1c0.1,0.5,0.1,0.9,0.2,1.4
			c0,0.5,0,1,0,1.4c0,0.4-0.1,0.8-0.2,1.1c-0.1,0.3-0.4,0.6-0.7,0.8c-0.4,0.2-0.8,0.3-1.2,0.3c-0.4,0-0.9,0-1.2-0.2
			c-0.3-0.1-0.6-0.4-0.7-0.7c-0.2-0.3-0.3-0.7-0.4-1.1c-0.1-0.5-0.1-0.9-0.2-1.4C50.8,147.3,50.8,146.9,50.8,146.4 M57.8,144.1
			l1.4,0.1l-0.4,5.7l2.4,0.2l-0.1,1.1l-3.8-0.2L57.8,144.1z M63.7,144.5l1.4,0.2l-0.9,5.6l2.4,0.4l-0.2,1.1l-3.8-0.6L63.7,144.5z
			 M73.2,152.8c0.2,0.1,0.4,0.1,0.6,0.1c0.2,0,0.3-0.1,0.5-0.3c0.2-0.2,0.3-0.4,0.4-0.7c0.1-0.3,0.3-0.6,0.5-1.1
			c0.1-0.4,0.2-0.7,0.3-1c0.1-0.2,0.1-0.5,0.1-0.7c0-0.2-0.1-0.4-0.2-0.5c-0.1-0.2-0.3-0.3-0.5-0.4l-0.5-0.2l-1.7,4.5L73.2,152.8z
			 M75.5,147.4c0.4,0.1,0.7,0.3,1,0.6c0.2,0.2,0.4,0.5,0.4,0.9c0,0.4,0,0.7-0.1,1.1c-0.1,0.4-0.2,0.9-0.4,1.3
			c-0.2,0.5-0.4,1-0.7,1.4c-0.2,0.3-0.4,0.6-0.7,0.9c-0.3,0.2-0.6,0.3-0.9,0.3c-0.4,0-0.8-0.1-1.1-0.2l-2-0.8l2.4-6.4L75.5,147.4z
			 M79,153.9c-0.1,0.2-0.2,0.5-0.2,0.8c0,0.2,0,0.4,0,0.5c0.1,0.2,0.2,0.3,0.4,0.4c0.2,0.1,0.3,0.1,0.5,0.1c0.2,0,0.3-0.1,0.5-0.3
			c0.2-0.2,0.4-0.4,0.5-0.6c0.2-0.3,0.4-0.6,0.6-1c0.2-0.4,0.4-0.8,0.5-1c0.1-0.2,0.2-0.5,0.2-0.8c0-0.2,0-0.4-0.1-0.5
			c-0.1-0.2-0.2-0.3-0.4-0.4c-0.2-0.1-0.3-0.1-0.5-0.1c-0.2,0-0.3,0.1-0.5,0.3c-0.2,0.2-0.4,0.4-0.5,0.6c-0.2,0.3-0.4,0.6-0.6,1
			C79.3,153.3,79.1,153.6,79,153.9 M79,151c0.2-0.3,0.5-0.6,0.8-0.8c0.3-0.2,0.6-0.3,1-0.3c0.4,0,0.8,0.1,1.2,0.3
			c0.4,0.2,0.7,0.5,1,0.8c0.2,0.3,0.3,0.6,0.3,1c0,0.4-0.1,0.8-0.2,1.1c-0.2,0.4-0.4,0.9-0.6,1.3c-0.2,0.4-0.5,0.8-0.7,1.2
			c-0.2,0.3-0.5,0.6-0.8,0.8c-0.3,0.2-0.6,0.3-1,0.3c-0.4,0-0.8-0.1-1.2-0.4c-0.4-0.2-0.7-0.5-1-0.8c-0.2-0.3-0.3-0.6-0.3-1
			c0-0.4,0.1-0.8,0.2-1.1c0.2-0.4,0.4-0.9,0.6-1.3C78.5,151.8,78.7,151.4,79,151 M87.2,153.3l-2.5,4.5l0,0l3.7-3.5l1,0.8l-2.4,4.5
			l0,0l3.7-3.5l1,0.8l-5.1,4.7l-1.2-0.9l2.4-4.4l0,0l-3.6,3.5l-1.2-0.9l3.2-6.2L87.2,153.3z M92.5,164L92.5,164l3.4-3.2l0.9,0.9
			l-4.9,4.8l-1.1-1.1l2.2-4.5l0,0l-3.4,3.3l-0.9-0.9l4.9-4.8l1.1,1.1L92.5,164z M98.3,171.2l-1.5-2.2l0.9-0.6l1.5,2.2L98.3,171.2z
			 M101.2,176.9c-0.1,0.1-0.3,0.1-0.4,0.2c-0.1,0.1-0.2,0.2-0.2,0.3c-0.1,0.1-0.1,0.2-0.1,0.3c0,0.2,0,0.3,0.1,0.4
			c0.1,0.2,0.2,0.3,0.4,0.4c0.2,0.1,0.5,0.1,0.7,0c0.1-0.1,0.2-0.1,0.3-0.2c0.1-0.1,0.2-0.2,0.2-0.3c0-0.1,0.1-0.3,0.1-0.4
			c0-0.2,0-0.4,0-0.6c0-0.3,0-0.6,0-0.9c0-0.2,0.1-0.5,0.2-0.7c0.1-0.2,0.2-0.4,0.4-0.5c0.2-0.2,0.4-0.3,0.6-0.4
			c0.5-0.3,1.1-0.3,1.6-0.1c0.5,0.3,0.9,0.7,1.1,1.2c0.1,0.3,0.2,0.5,0.2,0.8c0,0.2,0,0.5,0,0.7c-0.1,0.2-0.2,0.5-0.4,0.6
			c-0.2,0.2-0.4,0.4-0.7,0.5l-0.2,0.1l-0.5-1.2c0.2-0.1,0.5-0.2,0.6-0.5c0.1-0.2,0.1-0.4,0-0.6c0-0.1-0.1-0.2-0.2-0.3
			c-0.1-0.1-0.2-0.1-0.3-0.2c-0.1,0-0.2,0-0.3,0c-0.1,0-0.2,0-0.3,0.1c-0.2,0.1-0.3,0.2-0.4,0.3c-0.1,0.2-0.2,0.4-0.1,0.7v1.2
			c0,0.2,0,0.5-0.1,0.7c0,0.2-0.1,0.4-0.2,0.5c-0.1,0.1-0.2,0.3-0.4,0.4c-0.2,0.1-0.3,0.2-0.5,0.3c-0.5,0.3-1.1,0.3-1.7,0.1
			c-0.5-0.3-0.9-0.8-1.1-1.4c-0.3-0.5-0.4-1.1-0.2-1.7c0.2-0.5,0.6-0.9,1.1-1l0.3-0.1l0.6,1.3L101.2,176.9z M107.5,183
			c0.2-0.2,0.2-0.5,0.1-0.7c0-0.1-0.1-0.3-0.3-0.4c-0.2-0.1-0.3-0.1-0.5-0.1c-0.3,0-0.5,0-0.8,0.1c-0.3,0.1-0.7,0.2-1.2,0.3
			c-0.4,0.1-0.8,0.3-1.2,0.4c-0.2,0.1-0.5,0.2-0.7,0.4c-0.1,0.1-0.2,0.2-0.3,0.4c0,0.1,0,0.3,0,0.4c0,0.1,0.1,0.2,0.2,0.3
			c0.1,0.1,0.2,0.2,0.3,0.2c0.2,0,0.4,0,0.6,0c0.3,0,0.6-0.1,0.9-0.2l0.4,1.3c-0.3,0.1-0.7,0.2-1,0.2c-0.3,0-0.6,0-0.9-0.1
			c-0.3-0.1-0.5-0.2-0.7-0.5c-0.2-0.3-0.4-0.6-0.5-1c-0.1-0.4-0.2-0.8-0.1-1.3c0.1-0.3,0.2-0.6,0.5-0.9c0.3-0.3,0.6-0.5,1-0.6
			c0.4-0.2,0.9-0.3,1.4-0.5c0.5-0.1,0.9-0.3,1.4-0.3c0.4-0.1,0.8-0.1,1.2,0c0.3,0.1,0.7,0.2,0.9,0.5c0.3,0.3,0.5,0.7,0.6,1.1
			c0.1,0.4,0.2,0.8,0.1,1.2c-0.1,0.3-0.2,0.6-0.4,0.8c-0.2,0.2-0.4,0.4-0.7,0.5c-0.2,0.1-0.5,0.2-0.8,0.3l-0.4-1.3
			C106.8,183.4,107.2,183.3,107.5,183 M110.1,189.2c0.1,0.5,0,1-0.2,1.4c-0.3,0.4-0.7,0.6-1.2,0.7c-0.4,0.1-0.8,0-1.2-0.1
			c-0.3-0.1-0.6-0.4-0.7-0.8h0c0,0.3,0,0.6-0.2,0.8c-0.2,0.2-0.5,0.4-0.8,0.4c-0.1,0-0.3,0.1-0.4,0.1l-0.5,0.1
			c-0.4,0.1-0.6,0.1-0.8,0.2c-0.2,0-0.3,0.2-0.3,0.3l-0.1,0l-0.2-1.5c0.1-0.1,0.2-0.1,0.3-0.2c0.1,0,0.2-0.1,0.4-0.1l1.3-0.3
			c0.2,0,0.4-0.1,0.6-0.3c0.1-0.2,0.2-0.4,0.1-0.6l-0.1-0.7l-2.8,0.5l-0.2-1.4l6.7-1.1L110.1,189.2z M107.1,189.1
			c0,0.3,0.2,0.5,0.4,0.7c0.2,0.2,0.5,0.2,0.8,0.1c0.5,0,0.8-0.4,0.8-0.9c0-0.1,0-0.2,0-0.2l-0.1-0.6l-1.9,0.3L107.1,189.1z
			 M106.2,195.1c-0.3,0-0.5,0.1-0.8,0.2c-0.2,0.1-0.3,0.2-0.4,0.3c-0.2,0.3-0.2,0.7,0,1c0.1,0.1,0.3,0.2,0.5,0.3
			c0.3,0.1,0.5,0.1,0.8,0.1c0.3,0,0.7,0,1.2,0c0.5,0,0.8,0,1.2-0.1c0.3,0,0.5-0.1,0.8-0.2c0.2-0.1,0.3-0.2,0.4-0.3
			c0.2-0.3,0.2-0.7,0-1c-0.1-0.1-0.3-0.2-0.5-0.3c-0.3-0.1-0.5-0.1-0.8-0.1c-0.3,0-0.7,0-1.2,0C107,195,106.6,195,106.2,195.1
			 M108.8,193.6c0.4,0,0.8,0.1,1.1,0.3c0.3,0.1,0.6,0.4,0.8,0.7c0.4,0.8,0.4,1.7,0.1,2.5c-0.2,0.3-0.4,0.6-0.7,0.7
			c-0.3,0.2-0.7,0.3-1.1,0.4c-0.9,0.1-1.9,0.2-2.9,0.1c-0.4,0-0.8-0.1-1.1-0.3c-0.3-0.1-0.6-0.4-0.7-0.7c-0.4-0.8-0.4-1.7-0.1-2.5
			c0.1-0.3,0.4-0.6,0.7-0.7c0.3-0.2,0.7-0.3,1.1-0.4C106.9,193.6,107.8,193.6,108.8,193.6 M110.9,200.7l-0.1,1.4l-5.7-0.5l-0.2,2.4
			l-1.1-0.1l0.3-3.8L110.9,200.7z M110.3,206.6L110,208l-5.6-1.1l-0.5,2.4l-1.1-0.2l0.7-3.7L110.3,206.6z M101.8,215.8
			c-0.1,0.2-0.1,0.4-0.1,0.6c0,0.2,0.1,0.4,0.2,0.5c0.2,0.2,0.4,0.3,0.6,0.4c0.3,0.1,0.6,0.3,1.1,0.5c0.4,0.1,0.7,0.3,1,0.4
			c0.2,0.1,0.5,0.1,0.7,0.1c0.2,0,0.4-0.1,0.5-0.2c0.2-0.1,0.3-0.3,0.4-0.5l0.2-0.5l-4.4-1.8L101.8,215.8z M107.1,218.3
			c-0.1,0.4-0.4,0.7-0.7,1c-0.2,0.2-0.6,0.3-0.9,0.4c-0.4,0-0.7,0-1.1-0.1c-0.4-0.1-0.9-0.3-1.3-0.4c-0.5-0.2-1-0.4-1.4-0.7
			c-0.3-0.2-0.6-0.5-0.9-0.8c-0.2-0.3-0.3-0.6-0.3-0.9c0-0.4,0.1-0.8,0.2-1.1l0.8-2l6.3,2.6L107.1,218.3z M100.5,221.6
			c-0.2-0.1-0.5-0.2-0.7-0.3c-0.2,0-0.4,0-0.5,0c-0.3,0.2-0.5,0.5-0.5,0.9c0,0.2,0.1,0.3,0.2,0.5c0.2,0.2,0.4,0.4,0.6,0.5
			c0.3,0.2,0.6,0.4,1,0.6c0.4,0.2,0.7,0.4,1,0.5c0.2,0.1,0.5,0.2,0.8,0.3c0.2,0,0.4,0,0.5,0c0.2-0.1,0.3-0.2,0.4-0.4
			c0.1-0.1,0.1-0.3,0.1-0.5c0-0.2-0.1-0.3-0.2-0.5c-0.2-0.2-0.4-0.4-0.6-0.5c-0.3-0.2-0.6-0.4-1-0.6
			C101.1,221.9,100.8,221.7,100.5,221.6 M103.4,221.7c0.3,0.2,0.6,0.5,0.8,0.8c0.2,0.3,0.3,0.6,0.3,1c-0.1,0.9-0.5,1.6-1.2,2.2
			c-0.3,0.2-0.6,0.3-1,0.3c-0.4,0-0.8-0.1-1.1-0.3c-0.4-0.2-0.9-0.4-1.3-0.6c-0.4-0.2-0.8-0.5-1.2-0.8c-0.3-0.2-0.6-0.5-0.8-0.8
			c-0.2-0.3-0.3-0.6-0.3-1c0.1-0.9,0.5-1.6,1.2-2.2c0.3-0.2,0.6-0.3,1-0.3c0.4,0,0.8,0.1,1.1,0.3
			C101.8,220.7,102.6,221.1,103.4,221.7 M100.9,229.8l-4.4-2.6l0,0l3.4,3.8l-0.8,1l-4.4-2.5l0,0l3.5,3.7l-0.8,1l-4.5-5.2l1-1.2
			l4.3,2.5l0,0l-3.4-3.7l1-1.2l6.1,3.3L100.9,229.8z M90,234.8L90,234.8l3.2,3.4l-0.9,0.9l-4.7-5l1.1-1.1l4.5,2.4l0,0l-3.3-3.5
			l0.9-0.9l4.6,5l-1.2,1.1L90,234.8z M82.6,240.4l2.3-1.4l0.6,1l-2.3,1.4L82.6,240.4z M76.9,243.2c-0.1-0.1-0.1-0.3-0.2-0.4
			c-0.1-0.1-0.2-0.2-0.3-0.3c-0.1-0.1-0.2-0.1-0.3-0.1c-0.2,0-0.3,0-0.4,0.1c-0.2,0.1-0.4,0.2-0.4,0.4c-0.1,0.2-0.1,0.5,0,0.7
			c0,0.1,0.1,0.2,0.2,0.3c0.1,0.1,0.2,0.2,0.3,0.2c0.1,0.1,0.3,0.1,0.4,0.1c0.2,0,0.4,0,0.6,0c0.3,0,0.6,0,0.9,0
			c0.2,0,0.5,0.1,0.7,0.2c0.2,0.1,0.4,0.2,0.5,0.4c0.2,0.2,0.3,0.4,0.4,0.7c0.3,0.5,0.3,1.1,0,1.6c-0.3,0.5-0.7,0.9-1.2,1
			c-0.3,0.1-0.5,0.2-0.8,0.2c-0.2,0-0.5,0-0.7,0c-0.2-0.1-0.4-0.2-0.6-0.4c-0.2-0.2-0.4-0.4-0.5-0.7l-0.1-0.2l1.2-0.5
			c0.1,0.2,0.2,0.5,0.4,0.6c0.2,0.1,0.4,0.1,0.6,0c0.1,0,0.2-0.1,0.3-0.2c0.1-0.1,0.1-0.2,0.2-0.3c0-0.1,0-0.2,0-0.3
			c0-0.1,0-0.2-0.1-0.3c-0.1-0.2-0.2-0.3-0.3-0.4c-0.2-0.1-0.4-0.2-0.7-0.1l-1.2,0c-0.2,0-0.5,0-0.7-0.1c-0.2,0-0.4-0.1-0.5-0.2
			c-0.1-0.1-0.3-0.2-0.4-0.4c-0.1-0.2-0.2-0.3-0.3-0.5c-0.3-0.5-0.3-1.2,0-1.7c0.3-0.5,0.8-0.9,1.4-1.1c0.5-0.3,1.2-0.3,1.7-0.2
			c0.5,0.2,0.8,0.7,1,1.2l0.1,0.3l-1.3,0.5L76.9,243.2z M71.1,250.4c-0.5,0.2-1,0.1-1.4-0.1c-0.4-0.2-0.7-0.7-0.8-1.2
			c-0.1-0.4-0.1-0.8,0-1.2c0.1-0.3,0.4-0.6,0.7-0.8v0c-0.3,0.1-0.6,0-0.8-0.1c-0.2-0.2-0.4-0.4-0.5-0.7c0-0.1-0.1-0.3-0.1-0.4
			c0-0.1-0.1-0.3-0.1-0.5c-0.1-0.3-0.2-0.6-0.3-0.8c-0.1-0.2-0.2-0.3-0.3-0.3l0-0.1l1.4-0.4c0.1,0.1,0.2,0.2,0.2,0.3
			c0.1,0.1,0.1,0.2,0.1,0.4l0.4,1.3c0.1,0.2,0.2,0.4,0.4,0.6c0.2,0.1,0.4,0.1,0.7,0.1l0.7-0.2l-0.8-2.8l1.3-0.4l1.8,6.6L71.1,250.4z
			 M70.9,247.4c-0.3,0.1-0.5,0.2-0.7,0.4c-0.1,0.3-0.2,0.6-0.1,0.8c0.1,0.5,0.5,0.8,0.9,0.7c0.1,0,0.2,0,0.2-0.1l0.6-0.2l-0.5-1.9
			L70.9,247.4z M64.9,247.1c0-0.3-0.1-0.5-0.2-0.8c-0.1-0.2-0.2-0.3-0.3-0.4c-0.2-0.1-0.3-0.1-0.5-0.1c-0.2,0-0.3,0.1-0.5,0.2
			c-0.1,0.1-0.2,0.3-0.2,0.5c0,0.3,0,0.5,0,0.8c0,0.3,0.1,0.7,0.1,1.2c0.1,0.5,0.1,0.8,0.2,1.2c0.1,0.3,0.1,0.5,0.2,0.8
			c0.1,0.2,0.2,0.3,0.3,0.4c0.2,0.1,0.3,0.1,0.5,0.1c0.2,0,0.3-0.1,0.5-0.2c0.1-0.1,0.2-0.3,0.2-0.5c0-0.3,0-0.5,0-0.8
			c0-0.3-0.1-0.7-0.1-1.2C65,247.8,64.9,247.4,64.9,247.1 M66.6,249.5c0,0.4,0,0.8-0.2,1.2c-0.1,0.3-0.3,0.6-0.6,0.8
			c-0.4,0.2-0.8,0.4-1.2,0.4c-0.4,0.1-0.9,0-1.3-0.1c-0.3-0.1-0.6-0.3-0.8-0.6c-0.2-0.3-0.4-0.7-0.5-1.1c-0.1-0.5-0.2-0.9-0.3-1.4
			c-0.1-0.5-0.1-1-0.1-1.4c0-0.4,0-0.8,0.2-1.2c0.1-0.3,0.3-0.6,0.6-0.8c0.4-0.2,0.8-0.4,1.2-0.4c0.4-0.1,0.8-0.1,1.3,0.1
			c0.3,0.1,0.6,0.3,0.8,0.6c0.2,0.3,0.4,0.7,0.5,1.1c0.1,0.5,0.2,0.9,0.3,1.4C66.5,248.6,66.5,249,66.6,249.5 M59.8,252.3l-1.4,0
			l-0.1-5.7l-2.4,0l0-1.1l3.8,0L59.8,252.3z M53.8,252.3l-1.4-0.1l0.5-5.7l-2.4-0.2l0.1-1.1l3.8,0.3L53.8,252.3z M43.8,244.8
			c-0.2-0.1-0.4-0.1-0.6,0c-0.2,0-0.3,0.2-0.5,0.3c-0.2,0.2-0.3,0.4-0.4,0.7c-0.1,0.3-0.2,0.7-0.4,1.1c-0.1,0.4-0.2,0.7-0.3,1
			c-0.1,0.2-0.1,0.5-0.1,0.7c0,0.2,0.1,0.4,0.2,0.5c0.2,0.2,0.3,0.3,0.6,0.3l0.6,0.2l1.4-4.6L43.8,244.8z M41.9,250.3
			c-0.4-0.1-0.7-0.3-1-0.6c-0.2-0.2-0.4-0.5-0.5-0.8c-0.1-0.4-0.1-0.7,0-1.1c0.1-0.5,0.2-0.9,0.3-1.3c0.1-0.5,0.3-1,0.6-1.5
			c0.2-0.4,0.4-0.7,0.7-0.9c0.2-0.2,0.5-0.4,0.9-0.4c0.4,0,0.8,0,1.2,0.1l2.1,0.6l-1.9,6.5L41.9,250.3z M37.9,244.1
			c0.1-0.2,0.2-0.5,0.2-0.8c0-0.2,0-0.4-0.1-0.5c-0.1-0.1-0.2-0.3-0.4-0.3c-0.2-0.1-0.3-0.1-0.5-0.1c-0.2,0-0.3,0.1-0.4,0.3
			c-0.2,0.2-0.3,0.4-0.4,0.7c-0.1,0.3-0.3,0.6-0.5,1.1c-0.2,0.4-0.3,0.8-0.4,1.1c-0.1,0.2-0.2,0.5-0.2,0.8c0,0.2,0,0.4,0.1,0.5
			c0.1,0.1,0.2,0.3,0.4,0.3c0.2,0.1,0.3,0.1,0.5,0.1c0.2,0,0.3-0.2,0.4-0.3c0.2-0.2,0.3-0.4,0.4-0.7c0.1-0.3,0.3-0.6,0.5-1.1
			S37.8,244.4,37.9,244.1 M38.1,247c-0.2,0.3-0.4,0.7-0.7,0.9c-0.3,0.2-0.6,0.4-0.9,0.4c-0.4,0-0.9-0.1-1.2-0.3
			c-0.4-0.2-0.8-0.4-1-0.7c-0.2-0.3-0.3-0.6-0.4-1c0-0.4,0-0.8,0.2-1.2c0.1-0.5,0.3-0.9,0.5-1.3c0.2-0.4,0.4-0.9,0.6-1.3
			c0.2-0.3,0.4-0.6,0.7-0.9c0.3-0.2,0.6-0.3,0.9-0.4c0.4,0,0.8,0.1,1.2,0.3c0.4,0.2,0.8,0.4,1,0.7c0.2,0.3,0.3,0.6,0.4,0.9
			c0,0.4,0,0.8-0.2,1.2c-0.1,0.5-0.3,0.9-0.5,1.3C38.5,246.1,38.3,246.6,38.1,247 M29.8,245.2l2.1-4.6l0,0l-3.4,3.8l-1.1-0.7
			l2.1-4.7l0,0l-3.4,3.8l-1.1-0.7l4.8-5l1.3,0.8l-2.1,4.6l0,0l3.4-3.7l1.3,0.8l-2.7,6.4L29.8,245.2z M23.7,235L23.7,235l-3.1,3.5
			l-0.9-0.8l4.5-5.1l1.2,1l-1.9,4.7l0,0l3.2-3.6l0.9,0.8l-4.5,5.1l-1.2-1.1L23.7,235z M17.4,228.2l1.7,2.1l-0.9,0.7l-1.7-2.1
			L17.4,228.2z M14,222.7c0.1-0.1,0.3-0.1,0.4-0.2c0.1-0.1,0.2-0.2,0.2-0.3c0-0.1,0.1-0.2,0.1-0.3c0-0.2-0.1-0.3-0.1-0.4
			c-0.1-0.2-0.3-0.3-0.4-0.4c-0.2-0.1-0.5-0.1-0.7,0.1c-0.1,0.1-0.2,0.1-0.3,0.2c-0.1,0.1-0.1,0.2-0.2,0.3c0,0.1,0,0.3,0,0.4
			c0,0.2,0,0.4,0.1,0.6c0,0.3,0.1,0.6,0.1,0.9c0,0.2,0,0.5-0.1,0.7c-0.1,0.2-0.2,0.4-0.3,0.6c-0.2,0.2-0.4,0.3-0.6,0.4
			c-0.5,0.3-1.1,0.4-1.6,0.2c-0.5-0.2-0.9-0.6-1.2-1.1c-0.1-0.3-0.2-0.5-0.3-0.8c-0.1-0.2-0.1-0.5,0-0.7c0-0.2,0.2-0.5,0.3-0.7
			c0.2-0.2,0.4-0.4,0.7-0.5l0.2-0.1l0.6,1.2c-0.2,0.1-0.4,0.3-0.6,0.5c-0.1,0.2-0.1,0.4,0,0.6c0.1,0.1,0.1,0.2,0.2,0.3
			c0.1,0.1,0.2,0.1,0.3,0.1c0.1,0,0.2,0,0.3,0c0.1,0,0.2-0.1,0.3-0.1c0.2-0.1,0.3-0.2,0.4-0.4c0.1-0.2,0.1-0.5,0.1-0.7l-0.1-1.2
			c0-0.2,0-0.5,0-0.7c0-0.2,0.1-0.4,0.2-0.5c0.1-0.2,0.2-0.3,0.3-0.4c0.2-0.1,0.3-0.2,0.5-0.3c0.5-0.3,1.1-0.4,1.7-0.2
			c0.6,0.3,1,0.7,1.2,1.3c0.3,0.5,0.4,1.1,0.3,1.7c-0.2,0.5-0.6,0.9-1.1,1.1l-0.2,0.1l-0.6-1.2L14,222.7z M7.3,217.1
			c-0.2,0.2-0.2,0.5-0.1,0.7c0,0.1,0.1,0.3,0.3,0.3c0.2,0.1,0.3,0.1,0.5,0.1c0.3,0,0.5-0.1,0.8-0.2c0.3-0.1,0.7-0.2,1.2-0.4
			c0.4-0.1,0.8-0.3,1.2-0.5c0.2-0.1,0.4-0.2,0.6-0.4c0.1-0.1,0.2-0.2,0.2-0.4c0-0.1,0-0.3-0.1-0.4c0-0.1-0.1-0.2-0.2-0.3
			c-0.1-0.1-0.2-0.1-0.3-0.2c-0.2,0-0.4,0-0.6,0c-0.3,0.1-0.6,0.1-0.9,0.3l-0.5-1.3c0.3-0.1,0.7-0.2,1-0.3c0.3-0.1,0.6-0.1,0.9,0
			c0.3,0.1,0.6,0.2,0.8,0.4c0.3,0.3,0.5,0.6,0.6,1c0.2,0.4,0.2,0.8,0.2,1.2c0,0.3-0.2,0.7-0.4,0.9c-0.3,0.3-0.6,0.5-0.9,0.7
			c-0.4,0.2-0.9,0.4-1.3,0.6c-0.4,0.2-0.9,0.3-1.4,0.4c-0.4,0.1-0.8,0.1-1.2,0.1c-0.3,0-0.7-0.2-0.9-0.4c-0.3-0.3-0.6-0.7-0.7-1.1
			c-0.2-0.4-0.2-0.8-0.2-1.2c0-0.3,0.2-0.6,0.3-0.8c0.2-0.2,0.4-0.4,0.7-0.5c0.2-0.1,0.5-0.2,0.7-0.3l0.5,1.3
			C7.9,216.6,7.6,216.8,7.3,217.1 M4.2,211.2c-0.1-0.5-0.1-1,0.1-1.4c0.3-0.4,0.7-0.7,1.2-0.8c0.4-0.1,0.8-0.1,1.2,0
			c0.3,0.1,0.6,0.4,0.7,0.7h0c0-0.3,0-0.6,0.1-0.8c0.2-0.2,0.4-0.4,0.7-0.5c0.1,0,0.3-0.1,0.4-0.1l0.5-0.1c0.3-0.1,0.6-0.2,0.8-0.3
			c0.2-0.1,0.3-0.2,0.3-0.3l0.1,0l0.4,1.4c-0.1,0.1-0.2,0.2-0.3,0.2c-0.1,0-0.2,0.1-0.4,0.1l-1.3,0.3c-0.2,0.1-0.4,0.2-0.6,0.3
			c-0.1,0.2-0.2,0.4-0.1,0.7l0.2,0.7l2.8-0.7l0.3,1.3l-6.6,1.6L4.2,211.2z M7.3,211c0-0.3-0.2-0.5-0.4-0.7c-0.3-0.1-0.6-0.2-0.8-0.1
			c-0.5,0-0.8,0.5-0.7,0.9c0,0.1,0,0.2,0.1,0.2l0.2,0.6l1.9-0.5L7.3,211z M7.7,205c0.3,0,0.5-0.1,0.8-0.2c0.2-0.1,0.3-0.2,0.4-0.3
			c0.1-0.2,0.1-0.3,0.1-0.5c0-0.2-0.1-0.3-0.2-0.5c-0.1-0.1-0.3-0.2-0.5-0.2c-0.3,0-0.5-0.1-0.8,0c-0.3,0-0.7,0-1.2,0.1
			c-0.5,0.1-0.8,0.1-1.2,0.2c-0.3,0-0.5,0.1-0.8,0.2c-0.2,0.1-0.3,0.2-0.4,0.3c-0.1,0.2-0.1,0.3-0.1,0.5c0,0.2,0.1,0.3,0.2,0.5
			c0.1,0.1,0.3,0.2,0.5,0.2c0.3,0,0.5,0.1,0.8,0c0.3,0,0.7,0,1.2-0.1C7,205.1,7.4,205.1,7.7,205 M5.3,206.6c-0.4,0-0.8-0.1-1.2-0.2
			c-0.3-0.1-0.6-0.3-0.8-0.6c-0.2-0.4-0.4-0.8-0.4-1.2c-0.1-0.4,0-0.9,0.1-1.3c0.1-0.3,0.4-0.6,0.7-0.8c0.3-0.2,0.7-0.4,1.1-0.4
			c0.5-0.1,0.9-0.2,1.4-0.2c0.5-0.1,1-0.1,1.4-0.1c0.4,0,0.8,0.1,1.1,0.2c0.3,0.1,0.6,0.3,0.8,0.6c0.2,0.4,0.4,0.8,0.4,1.2
			c0.1,0.4,0,0.9-0.1,1.3c-0.1,0.3-0.3,0.6-0.6,0.8c-0.3,0.2-0.7,0.4-1.1,0.4c-0.5,0.1-0.9,0.2-1.4,0.2
			C6.2,206.6,5.7,206.6,5.3,206.6 M2.7,199.8l0-1.4l5.7,0.1l0-2.4l1.1,0l0,3.8L2.7,199.8z M2.8,193.8l0.2-1.4l5.7,0.7l0.3-2.4
			l1.1,0.1l-0.4,3.8L2.8,193.8z M10.6,184c0.1-0.2,0.1-0.4,0.1-0.6c0-0.2-0.1-0.3-0.3-0.5c-0.2-0.2-0.4-0.3-0.7-0.4
			c-0.3-0.1-0.7-0.3-1.1-0.4c-0.4-0.1-0.7-0.2-1-0.3c-0.2-0.1-0.5-0.1-0.7-0.1c-0.2,0-0.4,0.1-0.5,0.2c-0.2,0.1-0.3,0.3-0.3,0.6
			l-0.2,0.6l4.6,1.5L10.6,184z M5.2,181.9c0.1-0.4,0.3-0.7,0.6-1c0.2-0.2,0.5-0.4,0.8-0.4c0.4-0.1,0.7-0.1,1.1,0
			c0.4,0.1,0.9,0.2,1.3,0.3c0.5,0.2,1,0.4,1.5,0.6c0.4,0.2,0.7,0.4,0.9,0.7c0.2,0.2,0.3,0.6,0.4,0.9c0,0.4,0,0.8-0.2,1.1l-0.7,2.1
			l-6.5-2.1L5.2,181.9z M11.5,178.1c0.2,0.1,0.5,0.2,0.8,0.2c0.2,0,0.4,0,0.5-0.1c0.1-0.1,0.3-0.2,0.3-0.4c0.1-0.2,0.1-0.3,0.1-0.5
			c0-0.2-0.1-0.3-0.3-0.4c-0.2-0.2-0.4-0.3-0.7-0.5c-0.3-0.2-0.6-0.3-1-0.5c-0.4-0.2-0.8-0.3-1.1-0.5c-0.2-0.1-0.5-0.2-0.8-0.2
			c-0.2,0-0.4,0-0.5,0.1c-0.2,0.1-0.3,0.2-0.3,0.4c-0.1,0.2-0.1,0.3-0.1,0.5c0,0.2,0.1,0.3,0.3,0.4c0.2,0.2,0.4,0.3,0.7,0.5
			c0.3,0.2,0.6,0.3,1,0.5C10.8,177.9,11.2,178,11.5,178.1 M8.6,178.3c-0.3-0.2-0.6-0.5-0.9-0.8c-0.2-0.3-0.3-0.6-0.4-0.9
			c0-0.4,0.1-0.8,0.3-1.2c0.2-0.4,0.4-0.7,0.8-1c0.3-0.2,0.6-0.3,1-0.3c0.4,0,0.8,0.1,1.2,0.2c0.5,0.2,0.9,0.3,1.3,0.5
			c0.4,0.2,0.9,0.4,1.3,0.7c0.3,0.2,0.6,0.5,0.9,0.8c0.2,0.3,0.3,0.6,0.4,0.9c0,0.4-0.1,0.8-0.3,1.2c-0.2,0.4-0.4,0.7-0.7,1
			c-0.3,0.2-0.6,0.3-0.9,0.3c-0.4,0-0.8-0.1-1.1-0.2c-0.5-0.2-0.9-0.3-1.3-0.5C9.4,178.7,9,178.5,8.6,178.3 M10.5,170l4.6,2.3l0,0
			l-3.7-3.5l0.8-1.1l4.6,2.2l0,0l-3.7-3.5l0.8-1.1l4.9,4.9l-0.9,1.3l-4.5-2.2l0,0l3.6,3.4l-0.9,1.3l-6.3-2.9L10.5,170z M21,164.2
			L21,164.2l-3.4-3.2l0.9-0.9l5,4.6l-1.1,1.1l-4.6-2l0,0l3.5,3.3l-0.9,0.9l-5-4.6l1.1-1.2L21,164.2z M27.9,158l-2.1,1.6l-0.7-0.9
			l2.1-1.6L27.9,158z"/>
	</g>
</g>
</svg>
