<svg id="logo" xmlns="http://www.w3.org/2000/svg" xmlns:xlink="http://www.w3.org/1999/xlink" width="218.281" height="98.069" viewBox="0 0 218.281 98.069">
  <defs>
    <clipPath id="clip-path">
      <rect id="Rettangolo_5" data-name="Rettangolo 5" width="218.281" height="98.069" fill="none"/>
    </clipPath>
  </defs>
  <g id="Raggruppa_1" data-name="Raggruppa 1" clip-path="url(#clip-path)">
    <path id="Tracciato_1" data-name="Tracciato 1" d="M106.288,81.077c1.042-1.066,1.861-1.907,2.852-1.907s1.81.841,2.851,1.907l.626.632,15.437,16.359L218.282,55.9V0H0V55.9L90.224,98.069l15.46-16.378Z" fill="#fff"/>
    <path id="Tracciato_2" data-name="Tracciato 2" d="M182.449,191.309l-13.58,14.521L107.587,177.3V157.038H271.392V177.3l-61.28,28.535-13.578-14.521c-2.107-2.4-3.994-3.629-7.043-3.629s-4.937,1.233-7.042,3.629m-26-9.583c5.665,0,14.813-4.068,14.813-14.886H139.9c2.324,10.818,10.894,14.886,16.556,14.886m82.632-14.886H207.712c0,10.818,9.152,14.886,14.814,14.886s14.234-4.068,16.558-14.886" transform="translate(-80.35 -117.281)"/>
    <path id="Tracciato_3" data-name="Tracciato 3" d="M64.558,26.716,55.552,50.372h5.684l1.477-4.3h9.963l1.477,4.3h5.684l-9-23.656Zm-.516,15.555L67.695,31.85l3.654,10.422ZM52.459,40.188A4.572,4.572,0,0,0,51.05,39a7.266,7.266,0,0,0-2.183-.745L47.5,38l1.188-.734a5.142,5.142,0,0,0,1.86-1.883,5.929,5.929,0,0,0,.606-2.841,5.559,5.559,0,0,0-1.6-4.326,6.89,6.89,0,0,0-4.815-1.5H35.7V50.372H45.49a12.167,12.167,0,0,0,3.392-.437,6.785,6.785,0,0,0,2.478-1.274,5.758,5.758,0,0,0,1.56-2.071,6.927,6.927,0,0,0,.558-2.861,7.656,7.656,0,0,0-.244-1.961,4.452,4.452,0,0,0-.775-1.58M41.042,30.552h1.725c3.1,0,3.562,1.842,3.562,2.938s-.463,2.938-3.562,2.938H41.042Zm5.711,15.219a7.571,7.571,0,0,1-3.757.7H41.042V40.134H43a7.589,7.589,0,0,1,3.757.7,2.973,2.973,0,0,1,0,4.937m55.087-2.9L89.153,26.716H83.528V50.372h5.346V34.217L101.56,50.372h5.591V26.716h-5.312Zm54.788,7.5h12.991v-4.36h-7.646V40.659h7.22V36.3h-7.22V31.077h7.646V26.716H156.627ZM121.543,26.716h-9.7V50.372h5.345v-8.2h4.351a8.28,8.28,0,0,0,6-2.011,7.665,7.665,0,0,0,2.052-5.715,7.666,7.666,0,0,0-2.052-5.716,8.28,8.28,0,0,0-6-2.011M119.869,38.07h-2.676V30.814h2.676c3.378,0,4.088,1.973,4.088,3.628s-.71,3.628-4.088,3.628m74.042-6.993h5.284V50.372h5.345V31.077h5.283V26.716H193.911Zm43.633,2.546a12.238,12.238,0,0,0-2.719-3.976,12.549,12.549,0,0,0-4.169-2.657,15.2,15.2,0,0,0-10.642,0,12.561,12.561,0,0,0-6.838,16.478,12.146,12.146,0,0,0,6.838,6.633,15.2,15.2,0,0,0,10.642,0,12.542,12.542,0,0,0,4.169-2.657,12.224,12.224,0,0,0,2.719-3.975,12.94,12.94,0,0,0,0-9.844M232.27,41.49a7.3,7.3,0,0,1-1.648,2.338,7.643,7.643,0,0,1-5.28,2.085,7.671,7.671,0,0,1-2.877-.548,7.353,7.353,0,0,1-4.018-3.875,7.461,7.461,0,0,1,0-5.891,7.346,7.346,0,0,1,4.018-3.874,7.706,7.706,0,0,1,8.158,1.536A7.35,7.35,0,0,1,232.27,35.6a7.46,7.46,0,0,1,0,5.891m-86.657-1.242a6.371,6.371,0,0,0,3.715-2.184,6.764,6.764,0,0,0,1.248-4.245,7.968,7.968,0,0,0-.475-2.765,6.254,6.254,0,0,0-3.742-3.769,9.348,9.348,0,0,0-3.411-.569h-9.464V50.372h5.345V39.555L145.8,50.372h6.611l-7.619-9.933Zm-1.774-3.374a5.226,5.226,0,0,1-3.254.9h-1.758V30.584h1.758a5.218,5.218,0,0,1,3.253.9,3.57,3.57,0,0,1,0,5.387m41.705-.538q-.776-.259-1.569-.485a9.355,9.355,0,0,1-1.532-.575,3.971,3.971,0,0,1-1.2-.858,2.071,2.071,0,0,1-.538-1.451,2.393,2.393,0,0,1,1.005-1.976,3.835,3.835,0,0,1,2.361-.7,6.151,6.151,0,0,1,2.231.447,8.067,8.067,0,0,1,1.714.944l2.019-3.96a16.465,16.465,0,0,0-3.244-1.2,15.145,15.145,0,0,0-3.705-.492,9.7,9.7,0,0,0-3.372.556,7.1,7.1,0,0,0-2.5,1.538,6.892,6.892,0,0,0-1.582,2.373,8.285,8.285,0,0,0-.566,3.126,6.513,6.513,0,0,0,.521,2.8,5.34,5.34,0,0,0,1.369,1.8,7.169,7.169,0,0,0,1.983,1.174c.786.312,1.6.6,2.422.861q1.064.368,1.813.665a5.764,5.764,0,0,1,1.323.711,2.653,2.653,0,0,1,.819.954,2.776,2.776,0,0,1-.693,3.24,3.86,3.86,0,0,1-2.718.869,7.433,7.433,0,0,1-3.008-.67,11.144,11.144,0,0,1-2.473-1.55l-2.21,4.158a14.356,14.356,0,0,0,7.987,2.422,12.129,12.129,0,0,0,3.878-.578,8.118,8.118,0,0,0,2.832-1.6,6.677,6.677,0,0,0,1.731-2.445,8.4,8.4,0,0,0,.6-3.237,6.419,6.419,0,0,0-1.336-4.231,9.438,9.438,0,0,0-4.364-2.638" transform="translate(-26.66 -19.438)" fill="#e60000"/>
  </g>
</svg>
