<svg xmlns="http://www.w3.org/2000/svg" xmlns:xlink="http://www.w3.org/1999/xlink" width="928.498" height="558.831" viewBox="0 0 928.498 558.831">
  <defs>
    <clipPath id="clip-path">
      <rect id="Rettangolo_25" data-name="Rettangolo 25" width="95.9" height="108.293" fill="none"/>
    </clipPath>
    <clipPath id="clip-path-2">
      <rect id="Rettangolo_26" data-name="Rettangolo 26" width="82.902" height="47.688" fill="none"/>
    </clipPath>
    <clipPath id="clip-path-3">
      <rect id="Rettangolo_27" data-name="Rettangolo 27" width="46.234" height="48.978" fill="none"/>
    </clipPath>
    <clipPath id="clip-path-4">
      <rect id="Rettangolo_28" data-name="Rettangolo 28" width="273.995" height="102.6" fill="none"/>
    </clipPath>
  </defs>
  <g id="Raggruppa_88" data-name="Raggruppa 88" transform="translate(-76.89 -42.093)">
    <g id="Raggruppa_66" data-name="Raggruppa 66" transform="translate(-23.172 34.084)">
      <text id="PUNCH_" data-name="PUNCH!!" transform="translate(190.61 443.618) rotate(-7)" font-size="270" font-family="'\32 9LTBukraCd-BdSl', '\32 9LT Bukra Condensed'"><tspan x="0" y="0">PUNCH!!</tspan></text>
      <text id="PUNCH_2" data-name="PUNCH!!" transform="translate(176.821 450.608) rotate(-7)" fill="#fff" font-size="270" font-family="'\32 9LTBukraCd-BdSl', '\32 9LT Bukra Condensed'"><tspan x="0" y="0">PUNCH!!</tspan></text>
    </g>
    <g id="Raggruppa_68" data-name="Raggruppa 68" transform="translate(103.89 182.219)">
      <g id="Raggruppa_67" data-name="Raggruppa 67" transform="translate(-27 -9.004)" clip-path="url(#clip-path)">
        <path id="Tracciato_46" data-name="Tracciato 46" d="M284.26,310.1s46.781,6.965,30.433-39.932c0,0,44.756.453,33.174-42.345,0,0-14.253,23.412-33.482,26.294s-32.7-3.393-32.7-3.393,39.378,39.687,2.57,59.376" transform="translate(-253.882 -205.331)" fill="#fff"/>
        <path id="Tracciato_47" data-name="Tracciato 47" d="M87.125,0s4.066,39.3-26.718,43.756S0,30.78,0,30.78s88.093,57.632,13.23,77.509c0,0,83.124-5.163,25.557-57.309,0,0,80.155,24.524,48.338-50.984" transform="translate(0 0.004)" fill="#040404"/>
      </g>
    </g>
    <g id="Raggruppa_70" data-name="Raggruppa 70" transform="translate(918.549 391.176)">
      <g id="Raggruppa_69" data-name="Raggruppa 69" clip-path="url(#clip-path-2)">
        <path id="Tracciato_48" data-name="Tracciato 48" d="M58.341,5.347S17.485-15.515,21.433,25.174c0,0-12.54-5.1-21.433,14.742,0,0,18.343-13.027,29.937,0,0,0-11.671-36.584,28.4-34.568" transform="translate(0 0)" fill="#fff"/>
        <path id="Tracciato_49" data-name="Tracciato 49" d="M82.9,28.366S23.316,2.346,35.481,60.467c0,0-16.22-17.572-35.481-7.772,0,0,11.714-14.643,28.16-6.082,0,0-19.374-55.643,54.742-18.247" transform="translate(0 -12.78)" fill="#040404"/>
      </g>
    </g>
    <g id="Raggruppa_72" data-name="Raggruppa 72" transform="translate(88.539 496.988) rotate(-25)">
      <g id="Raggruppa_71" data-name="Raggruppa 71" clip-path="url(#clip-path-3)">
        <path id="Tracciato_50" data-name="Tracciato 50" d="M111.326.6s32.1-6.177,21.29,28.9c0,0,15.269,6.733,6.513,18.939,0,0-10.205-10.739-21.762-12.651,0,0,11.315-19.64-6.041-35.19" transform="translate(-95.604 -0.159)" fill="#fff"/>
        <path id="Tracciato_51" data-name="Tracciato 51" d="M0,1.062S50.132,8.818,7.755,40.946c0,0,16.9-6.924,35.729,8.032,0,0,1.662-11.633-16.064-15.787,0,0,36.006-40.161-27.42-32.129" transform="translate(0 0)" fill="#040404"/>
      </g>
    </g>
    <g id="Raggruppa_74" data-name="Raggruppa 74" transform="matrix(0.978, -0.208, 0.208, 0.978, 541.994, 99.06)">
      <g id="Raggruppa_73" data-name="Raggruppa 73" clip-path="url(#clip-path-4)">
        <path id="Tracciato_52" data-name="Tracciato 52" d="M136.09,212.352s36.353,86.725,105.37,26.124c0,0,28.963,53.1,101.024,15.845,0,0-3.153,17.282,31.744,19.76l-15.424-15.59V240.422l5.514-11.675s-29.806,21.127-68.383,17.235-40.777-48.091-40.777-48.091S226.99,242.1,188.7,240.7c-30.353-1.112-52.613-28.348-52.613-28.348" transform="translate(-112.482 -171.481)" fill="#fff"/>
        <path id="Tracciato_53" data-name="Tracciato 53" d="M0,0S39.012,60.025,80.293,61.072s71.22-56.535,71.22-56.535S133.368,69.1,185.083,69.1s88.912-30.012,88.912-30.012S229.539,72.239,261.747,102.6c0,0-35.61-1.745-15.2-38.388,0,0-101.387,58.28-107.738-29.314C138.812,34.9,71.334,150.324,0,0" fill="#040404"/>
      </g>
    </g>
  </g>
</svg>
